<mxfile host="app.diagrams.net" agent="Mozilla/5.0 (Windows NT 10.0; Win64; x64) AppleWebKit/537.36 (KHTML, like Gecko) Chrome/131.0.0.0 Safari/537.36" version="26.0.1">
  <diagram name="Page-1" id="calfd4sUpI2_sSeBKB3S">
    <mxGraphModel dx="1247" dy="642" grid="1" gridSize="10" guides="1" tooltips="1" connect="1" arrows="1" fold="1" page="1" pageScale="1" pageWidth="850" pageHeight="1100" math="0" shadow="0">
      <root>
        <mxCell id="0" />
        <mxCell id="1" parent="0" />
        <mxCell id="vASCjh6h0P9jaqQrov2C-1" value="Register" style="ellipse;whiteSpace=wrap;html=1;labelBackgroundColor=none;fillColor=#5D7F99;strokeColor=#D0CEE2;fontColor=#1A1A1A;" vertex="1" parent="1">
          <mxGeometry y="350" width="110" height="70" as="geometry" />
        </mxCell>
        <mxCell id="vASCjh6h0P9jaqQrov2C-3" value="STUDENT" style="shape=umlActor;verticalLabelPosition=bottom;verticalAlign=top;html=1;outlineConnect=0;labelBackgroundColor=none;fillColor=#5D7F99;strokeColor=#D0CEE2;fontColor=#1A1A1A;" vertex="1" parent="1">
          <mxGeometry x="130" y="110" width="50" height="70" as="geometry" />
        </mxCell>
        <mxCell id="vASCjh6h0P9jaqQrov2C-13" value="" style="endArrow=none;html=1;rounded=0;labelBackgroundColor=none;strokeColor=#736CA8;fontColor=default;" edge="1" parent="1" source="vASCjh6h0P9jaqQrov2C-1">
          <mxGeometry width="50" height="50" relative="1" as="geometry">
            <mxPoint x="90" y="260" as="sourcePoint" />
            <mxPoint x="140" y="210" as="targetPoint" />
          </mxGeometry>
        </mxCell>
        <mxCell id="vASCjh6h0P9jaqQrov2C-14" value="Book Game" style="ellipse;whiteSpace=wrap;html=1;labelBackgroundColor=none;fillColor=#5D7F99;strokeColor=#D0CEE2;fontColor=#1A1A1A;" vertex="1" parent="1">
          <mxGeometry x="130" y="370" width="110" height="60" as="geometry" />
        </mxCell>
        <mxCell id="vASCjh6h0P9jaqQrov2C-15" value="Login" style="ellipse;whiteSpace=wrap;html=1;labelBackgroundColor=none;fillColor=#5D7F99;strokeColor=#D0CEE2;fontColor=#1A1A1A;" vertex="1" parent="1">
          <mxGeometry x="270" y="350" width="100" height="60" as="geometry" />
        </mxCell>
        <mxCell id="vASCjh6h0P9jaqQrov2C-17" value="" style="endArrow=none;html=1;rounded=0;labelBackgroundColor=none;strokeColor=#736CA8;fontColor=default;" edge="1" parent="1" source="vASCjh6h0P9jaqQrov2C-15">
          <mxGeometry width="50" height="50" relative="1" as="geometry">
            <mxPoint x="320" y="380" as="sourcePoint" />
            <mxPoint x="140" y="210" as="targetPoint" />
          </mxGeometry>
        </mxCell>
        <mxCell id="vASCjh6h0P9jaqQrov2C-18" value="" style="endArrow=none;html=1;rounded=0;labelBackgroundColor=none;strokeColor=#736CA8;fontColor=default;" edge="1" parent="1" source="vASCjh6h0P9jaqQrov2C-14">
          <mxGeometry width="50" height="50" relative="1" as="geometry">
            <mxPoint x="320" y="380" as="sourcePoint" />
            <mxPoint x="140" y="210" as="targetPoint" />
          </mxGeometry>
        </mxCell>
        <mxCell id="vASCjh6h0P9jaqQrov2C-20" value="ADMIN" style="shape=umlActor;verticalLabelPosition=bottom;verticalAlign=top;html=1;outlineConnect=0;labelBackgroundColor=none;fillColor=#5D7F99;strokeColor=#D0CEE2;fontColor=#1A1A1A;" vertex="1" parent="1">
          <mxGeometry x="490" y="90" width="50" height="70" as="geometry" />
        </mxCell>
        <mxCell id="vASCjh6h0P9jaqQrov2C-21" value="Edit Game Slot" style="ellipse;whiteSpace=wrap;html=1;labelBackgroundColor=none;fillColor=#5D7F99;strokeColor=#D0CEE2;fontColor=#1A1A1A;" vertex="1" parent="1">
          <mxGeometry x="560" y="190" width="100" height="80" as="geometry" />
        </mxCell>
        <mxCell id="vASCjh6h0P9jaqQrov2C-23" value="" style="endArrow=none;html=1;rounded=0;labelBackgroundColor=none;strokeColor=#736CA8;fontColor=default;" edge="1" parent="1">
          <mxGeometry width="50" height="50" relative="1" as="geometry">
            <mxPoint x="330" y="350" as="sourcePoint" />
            <mxPoint x="510" y="190" as="targetPoint" />
          </mxGeometry>
        </mxCell>
        <mxCell id="vASCjh6h0P9jaqQrov2C-25" value="View Member List" style="ellipse;whiteSpace=wrap;html=1;labelBackgroundColor=none;fillColor=#5D7F99;strokeColor=#D0CEE2;fontColor=#1A1A1A;" vertex="1" parent="1">
          <mxGeometry x="240" y="510" width="140" height="60" as="geometry" />
        </mxCell>
        <mxCell id="vASCjh6h0P9jaqQrov2C-64" style="edgeStyle=orthogonalEdgeStyle;rounded=0;orthogonalLoop=1;jettySize=auto;html=1;exitX=0.5;exitY=1;exitDx=0;exitDy=0;entryX=1;entryY=0.5;entryDx=0;entryDy=0;dashed=1;labelBackgroundColor=none;strokeColor=#736CA8;fontColor=default;" edge="1" parent="1" source="vASCjh6h0P9jaqQrov2C-29" target="vASCjh6h0P9jaqQrov2C-25">
          <mxGeometry relative="1" as="geometry" />
        </mxCell>
        <mxCell id="vASCjh6h0P9jaqQrov2C-65" value="Extend" style="edgeLabel;html=1;align=center;verticalAlign=middle;resizable=0;points=[];labelBackgroundColor=none;fontColor=#1A1A1A;" vertex="1" connectable="0" parent="vASCjh6h0P9jaqQrov2C-64">
          <mxGeometry x="0.4045" relative="1" as="geometry">
            <mxPoint as="offset" />
          </mxGeometry>
        </mxCell>
        <mxCell id="vASCjh6h0P9jaqQrov2C-29" value="Accept And Reject Member Request" style="ellipse;whiteSpace=wrap;html=1;labelBackgroundColor=none;fillColor=#5D7F99;strokeColor=#D0CEE2;fontColor=#1A1A1A;" vertex="1" parent="1">
          <mxGeometry x="430" y="430" width="120" height="80" as="geometry" />
        </mxCell>
        <mxCell id="vASCjh6h0P9jaqQrov2C-42" value="Create Game&lt;div&gt;&amp;nbsp;Slot&lt;/div&gt;" style="ellipse;whiteSpace=wrap;html=1;labelBackgroundColor=none;fillColor=#5D7F99;strokeColor=#D0CEE2;fontColor=#1A1A1A;" vertex="1" parent="1">
          <mxGeometry x="670" y="190" width="100" height="60" as="geometry" />
        </mxCell>
        <mxCell id="vASCjh6h0P9jaqQrov2C-43" value="View Dashboard" style="ellipse;whiteSpace=wrap;html=1;labelBackgroundColor=none;fillColor=#5D7F99;strokeColor=#D0CEE2;fontColor=#1A1A1A;" vertex="1" parent="1">
          <mxGeometry x="460" y="310" width="120" height="50" as="geometry" />
        </mxCell>
        <mxCell id="vASCjh6h0P9jaqQrov2C-46" value="" style="endArrow=none;html=1;rounded=0;entryX=0.25;entryY=0;entryDx=0;entryDy=0;entryPerimeter=0;labelBackgroundColor=none;strokeColor=#736CA8;fontColor=default;" edge="1" parent="1" target="vASCjh6h0P9jaqQrov2C-43">
          <mxGeometry width="50" height="50" relative="1" as="geometry">
            <mxPoint x="510" y="190" as="sourcePoint" />
            <mxPoint x="370" y="330" as="targetPoint" />
          </mxGeometry>
        </mxCell>
        <mxCell id="vASCjh6h0P9jaqQrov2C-47" style="edgeStyle=orthogonalEdgeStyle;rounded=0;orthogonalLoop=1;jettySize=auto;html=1;entryX=0.445;entryY=-0.009;entryDx=0;entryDy=0;entryPerimeter=0;dashed=1;labelBackgroundColor=none;strokeColor=#736CA8;fontColor=default;" edge="1" parent="1" source="vASCjh6h0P9jaqQrov2C-43" target="vASCjh6h0P9jaqQrov2C-29">
          <mxGeometry relative="1" as="geometry" />
        </mxCell>
        <mxCell id="vASCjh6h0P9jaqQrov2C-49" value="Include" style="edgeLabel;html=1;align=center;verticalAlign=middle;resizable=0;points=[];labelBackgroundColor=none;fontColor=#1A1A1A;" vertex="1" connectable="0" parent="vASCjh6h0P9jaqQrov2C-47">
          <mxGeometry x="-0.3136" y="-3" relative="1" as="geometry">
            <mxPoint as="offset" />
          </mxGeometry>
        </mxCell>
        <mxCell id="vASCjh6h0P9jaqQrov2C-51" value="" style="endArrow=none;html=1;rounded=0;labelBackgroundColor=none;strokeColor=#736CA8;fontColor=default;" edge="1" parent="1" source="vASCjh6h0P9jaqQrov2C-53">
          <mxGeometry width="50" height="50" relative="1" as="geometry">
            <mxPoint x="320" y="380" as="sourcePoint" />
            <mxPoint x="510" y="190" as="targetPoint" />
          </mxGeometry>
        </mxCell>
        <mxCell id="vASCjh6h0P9jaqQrov2C-53" value="Manage Game Slot" style="ellipse;whiteSpace=wrap;html=1;labelBackgroundColor=none;fillColor=#5D7F99;strokeColor=#D0CEE2;fontColor=#1A1A1A;" vertex="1" parent="1">
          <mxGeometry x="620" y="410" width="120" height="80" as="geometry" />
        </mxCell>
        <mxCell id="vASCjh6h0P9jaqQrov2C-56" style="edgeStyle=orthogonalEdgeStyle;rounded=0;orthogonalLoop=1;jettySize=auto;html=1;entryX=1;entryY=0.5;entryDx=0;entryDy=0;labelBackgroundColor=none;strokeColor=#736CA8;fontColor=default;" edge="1" parent="1" source="vASCjh6h0P9jaqQrov2C-54" target="vASCjh6h0P9jaqQrov2C-53">
          <mxGeometry relative="1" as="geometry" />
        </mxCell>
        <mxCell id="vASCjh6h0P9jaqQrov2C-57" value="Generalization" style="edgeLabel;html=1;align=center;verticalAlign=middle;resizable=0;points=[];labelBackgroundColor=none;fontColor=#1A1A1A;" vertex="1" connectable="0" parent="vASCjh6h0P9jaqQrov2C-56">
          <mxGeometry x="-0.2957" y="-3" relative="1" as="geometry">
            <mxPoint x="13" as="offset" />
          </mxGeometry>
        </mxCell>
        <mxCell id="vASCjh6h0P9jaqQrov2C-54" value="Delete Game Slot" style="ellipse;whiteSpace=wrap;html=1;labelBackgroundColor=none;fillColor=#5D7F99;strokeColor=#D0CEE2;fontColor=#1A1A1A;" vertex="1" parent="1">
          <mxGeometry x="820" y="130" width="120" height="80" as="geometry" />
        </mxCell>
        <mxCell id="vASCjh6h0P9jaqQrov2C-55" style="edgeStyle=orthogonalEdgeStyle;rounded=0;orthogonalLoop=1;jettySize=auto;html=1;entryX=0.797;entryY=0.1;entryDx=0;entryDy=0;entryPerimeter=0;labelBackgroundColor=none;strokeColor=#736CA8;fontColor=default;" edge="1" parent="1" source="vASCjh6h0P9jaqQrov2C-42" target="vASCjh6h0P9jaqQrov2C-53">
          <mxGeometry relative="1" as="geometry">
            <mxPoint x="720" y="409" as="targetPoint" />
          </mxGeometry>
        </mxCell>
        <mxCell id="vASCjh6h0P9jaqQrov2C-58" value="Generalization" style="edgeLabel;html=1;align=center;verticalAlign=middle;resizable=0;points=[];labelBackgroundColor=none;fontColor=#1A1A1A;" vertex="1" connectable="0" parent="vASCjh6h0P9jaqQrov2C-55">
          <mxGeometry x="-0.2559" y="1" relative="1" as="geometry">
            <mxPoint as="offset" />
          </mxGeometry>
        </mxCell>
        <mxCell id="vASCjh6h0P9jaqQrov2C-59" style="edgeStyle=orthogonalEdgeStyle;rounded=0;orthogonalLoop=1;jettySize=auto;html=1;exitX=0.7;exitY=1;exitDx=0;exitDy=0;entryX=0.558;entryY=-0.03;entryDx=0;entryDy=0;entryPerimeter=0;exitPerimeter=0;labelBackgroundColor=none;strokeColor=#736CA8;fontColor=default;" edge="1" parent="1" source="vASCjh6h0P9jaqQrov2C-21" target="vASCjh6h0P9jaqQrov2C-53">
          <mxGeometry relative="1" as="geometry">
            <Array as="points">
              <mxPoint x="630" y="340" />
              <mxPoint x="687" y="340" />
            </Array>
          </mxGeometry>
        </mxCell>
        <mxCell id="vASCjh6h0P9jaqQrov2C-67" value="Generalization&lt;div&gt;&lt;br&gt;&lt;/div&gt;" style="edgeLabel;html=1;align=center;verticalAlign=middle;resizable=0;points=[];labelBackgroundColor=none;fontColor=#1A1A1A;" vertex="1" connectable="0" parent="vASCjh6h0P9jaqQrov2C-59">
          <mxGeometry x="-0.6587" y="-3" relative="1" as="geometry">
            <mxPoint as="offset" />
          </mxGeometry>
        </mxCell>
        <mxCell id="vASCjh6h0P9jaqQrov2C-71" value="" style="endArrow=classic;html=1;rounded=0;strokeColor=#736CA8;fontColor=#1A1A1A;entryX=0.714;entryY=0;entryDx=0;entryDy=0;entryPerimeter=0;dashed=1;" edge="1" parent="1" target="vASCjh6h0P9jaqQrov2C-25">
          <mxGeometry width="50" height="50" relative="1" as="geometry">
            <mxPoint x="460" y="340" as="sourcePoint" />
            <mxPoint x="510" y="290" as="targetPoint" />
          </mxGeometry>
        </mxCell>
        <mxCell id="vASCjh6h0P9jaqQrov2C-72" value="Include&lt;div&gt;&lt;br&gt;&lt;/div&gt;" style="edgeLabel;html=1;align=center;verticalAlign=middle;resizable=0;points=[];strokeColor=#D0CEE2;fontColor=#1A1A1A;fillColor=#5D7F99;" vertex="1" connectable="0" parent="vASCjh6h0P9jaqQrov2C-71">
          <mxGeometry x="-0.0741" y="-1" relative="1" as="geometry">
            <mxPoint as="offset" />
          </mxGeometry>
        </mxCell>
        <mxCell id="vASCjh6h0P9jaqQrov2C-74" value="" style="edgeLabel;html=1;align=center;verticalAlign=middle;resizable=0;points=[];strokeColor=#D0CEE2;fontColor=#1A1A1A;fillColor=#5D7F99;" vertex="1" connectable="0" parent="vASCjh6h0P9jaqQrov2C-71">
          <mxGeometry x="0.0263" y="5" relative="1" as="geometry">
            <mxPoint as="offset" />
          </mxGeometry>
        </mxCell>
        <mxCell id="vASCjh6h0P9jaqQrov2C-78" value="" style="shape=stencil(fZbdcgIhDIWfZm8zQAg/17Z9j85U606tdqz9e/tmZ0c0uJ47xP0I5JwEBl59bp8/1kNwn6fj4W39M76ctgM/DCGM++36OJ50NPDjwKvN4bh+PR6+9i/z74/n6ctp9H74nlb4nbmSKZeJCu5vngmZ6jzzNAO7cX8FVKEsBuBKrgKg9oAE8gkCbLeUhEoEQKSUDZDLeWYRKIl8MEDRmHwfyBrBG6Amyu4+kDxxMoB3jhwgYu7TVAsVkFcWCs4CTBEoF4RctKeOxHIf8IXYpikHikAIf+MNUW94AGSSaoAoFIE3AlOyeWU+p2E5S9yfQZcQILVuQOwZdJNoS9Ls3wA5u2XZTIHECqeJ9kDpSaauRiNVcAY1QhdBzeLBli5WazpkSsBLV25uRaqWRyFawTQzRRIQYirJzq5atkBqLfouwqUxLBepthWb10vrWZY6UOAeyKCCtDV625mm9gmUC4Wc3VLJMMIE1BsA2FW9JraVlQB7n3c9oMKhCLEvIM1zBPZ25/umNQ1tVEC2G+fFCC8g398O2hNQuQlVu752DBfA+q0ptnqO5JFmeuIuo9DY7KjY71UxdJV4EntifPWorW++R/dC4t7V3DlIB5cHx2bc7eb3yvX//QNFp+bHDT/+Aw==);lineShape=1;strokeColor=default;fontColor=#1A1A1A;fillColor=#5D7F99;" vertex="1" parent="1">
          <mxGeometry x="401.58083551519667" y="426.58722822479945" width="4.0630780627088825" height="4.056727144658473" as="geometry" />
        </mxCell>
      </root>
    </mxGraphModel>
  </diagram>
</mxfile>
